<svg width="1024" height="1024" viewBox="0 0 1024 1024" xmlns="http://www.w3.org/2000/svg">
  <path transform="translate(283.6,488.4) scale(0.11820,-0.11820)" d="M85 118 416 301V309L85 491V598L515 357V253L85 12Z" fill="#26272B"/>
  <path transform="translate(354.5,488.4) scale(0.11820,-0.11820)" d="M60 -179V-85H540V-179Z" fill="#26272B"/>
  <path transform="translate(283.6,677.4) scale(0.10240,-0.10240)" d="M300 -12Q236 -12 190.0 12.5Q144 37 114.0 83.0Q84 129 70.0 196.0Q56 263 56 349Q56 434 70.0 501.5Q84 569 114.0 615.0Q144 661 190.0 685.5Q236 710 300 710Q364 710 410.0 685.5Q456 661 486.0 615.0Q516 569 530.0 501.5Q544 434 544 349Q544 263 530.0 196.0Q516 129 486.0 83.0Q456 37 410.0 12.5Q364 -12 300 -12ZM300 61Q342 61 372.0 77.5Q402 94 420.5 124.0Q439 154 448.0 196.5Q457 239 457 292V406Q457 458 448.0 501.0Q439 544 420.5 574.0Q402 604 372.0 620.5Q342 637 300 637Q258 637 228.0 620.5Q198 604 179.5 574.0Q161 544 152.0 501.0Q143 458 143 406V292Q143 239 152.0 196.5Q161 154 179.5 124.0Q198 94 228.0 77.5Q258 61 300 61ZM300 290Q265 290 251.5 304.0Q238 318 238 338V360Q238 380 251.5 394.0Q265 408 300 408Q335 408 348.5 394.0Q362 380 362 360V338Q362 318 348.5 304.0Q335 290 300 290Z" fill="#26272B"/>
  <path transform="translate(345.0,677.4) scale(0.10240,-0.10240)" d="M257 136H386L271 -141H204Z" fill="#26272B"/>
  <path transform="translate(406.5,677.4) scale(0.10240,-0.10240)" d="M378 0V137H34V211L336 698H458V206H562V137H458V0ZM109 206H378V633H374Z" fill="#26272B"/>
  <path transform="translate(467.9,677.4) scale(0.10240,-0.10240)" d="M537 0H71V86L304 296Q355 342 388.0 390.5Q421 439 421 493V505Q421 568 388.0 602.5Q355 637 290 637Q226 637 191.5 604.5Q157 572 140 518L65 546Q75 577 92.5 606.5Q110 636 137.0 659.0Q164 682 202.5 696.0Q241 710 292 710Q344 710 384.5 695.0Q425 680 452.5 653.0Q480 626 494.5 589.0Q509 552 509 508Q509 468 497.5 433.0Q486 398 465.5 366.0Q445 334 416.5 303.5Q388 273 353 243L158 73H537Z" fill="#26272B"/>
  <path transform="translate(590.8,677.4) scale(0.10240,-0.10240)" d="M323 -12Q195 -12 132.5 81.0Q70 174 70 349Q70 524 132.5 617.0Q195 710 323 710Q371 710 406.0 697.0Q441 684 466.0 662.0Q491 640 508.0 612.5Q525 585 538 557L468 525Q459 549 447.0 569.5Q435 590 418.5 605.5Q402 621 378.5 630.0Q355 639 323 639Q251 639 211.0 592.0Q171 545 160 464H388V395H157V303H388V234H160Q171 153 211.0 106.0Q251 59 323 59Q355 59 378.5 68.0Q402 77 418.5 92.5Q435 108 447.0 128.5Q459 149 468 173L538 141Q525 112 508.0 85.0Q491 58 466.0 36.0Q441 14 406.0 1.0Q371 -12 323 -12Z" fill="#26272B"/>
</svg>
