<svg xmlns="http://www.w3.org/2000/svg" width="18" height="18" viewBox="0 0 18 18">
  <path fill-rule="evenodd" fill="#000000" d="M9 16.8 C4.6 14.3 2.4 11.4 2.4 8.1 C2.4 4.5 5.3 1.7 9 1.7 C12.7 1.7 15.6 4.5 15.6 8.1 C15.6 11.4 13.4 14.3 9 16.8 Z M5.9 8 m-2.8 0 a2.8 2.8 0 1 0 5.6 0 a2.8 2.8 0 1 0 -5.6 0 Z M12.1 8 m-2.8 0 a2.8 2.8 0 1 0 5.6 0 a2.8 2.8 0 1 0 -5.6 0 Z"/>
  <path fill="#000000" d="M6.9 3.3 C5.9 1.6 3.9 0.5 0.8 0.9 C2.0 2.0 3.1 3.4 4.2 5.7 C5.0 4.7 5.9 3.9 6.9 3.3 Z"/>
  <path fill="#000000" d="M11.1 3.3 C12.1 1.6 14.1 0.5 17.2 0.9 C16.0 2.0 14.9 3.4 13.8 5.7 C13.0 4.7 12.1 3.9 11.1 3.3 Z"/>
  <circle fill="#000000" cx="6.1" cy="8.1" r="1.2"/>
  <circle fill="#000000" cx="11.9" cy="8.1" r="1.2"/>
</svg>
